# xmcd
#
# Track frame offsets: 
#        150
#        14224
#        29101
#        40355
#        52258
#        65577
#        79945
#        90001
#        102869
#        117831
#
# Disc length: 1766 seconds
#
# Revision: 0
# Processed by: cddbd v1.5PL3 Copyright (c) Steve Scherf et al.
# Submitted via: ExactAudioCopy v0.95a5
#
DISCID=8806e40a
DTITLE=Kelton Johns - 
DYEAR=2002
DGENRE=Bluegrass
TTITLE0=Hallelujah Square
TTITLE1=Fallen Leaves
TTITLE2=Three Men On A Mountain
TTITLE3=Vission  Of Heaven
TTITLE4=God On The Mountain
TTITLE5=Mama"s Teaching Angles How To Sing
TTITLE6=Old Love Letters
TTITLE7=Far Side banks Of Jordan
TTITLE8=Please Search The Book Again
TTITLE9=The Lighthouse
EXTD=
EXTT0=
EXTT1=
EXTT2=
EXTT3=
EXTT4=
EXTT5=
EXTT6=
EXTT7=
EXTT8=
EXTT9=
PLAYORDER=
